<svg id="Warstwa_1" enable-background="new 0 0 283.46 283.46" height="283.46" viewBox="0 0 283.46 283.46" width="283.46" xmlns="http://www.w3.org/2000/svg"><g><path d="m280.629 235.086c-92.594-56.016-185.196 56.017-277.794 0 0-62.236 0-124.473 0-186.71 92.599 56.012 185.201-56.012 277.794 0z" fill="#cccbca"/><g><g fill="#fff"><path d="m278.371 67.497c-91.089-52.432-182.173 55.087-273.257 2.679 0-6.071 0-12.143 0-18.214 91.084 52.408 182.168-55.11 273.257-2.679z"/><path d="m278.371 231.439c-91.089-52.432-182.172 55.084-273.257 2.675 0-6.071 0-12.143 0-18.214 91.084 52.408 182.168-55.106 273.257-2.676z"/><path d="m278.386 190.46c-91.088-52.443-182.172 55.075-273.257 2.683 0-33.401 0-66.79 0-100.187 91.084 52.391 182.169-55.126 273.257-2.679z"/></g><path d="m278.386 90.269c-91.088-52.451-182.176 55.07-273.264 2.675 0-7.589 0-15.175 0-22.764 91.088 52.4 182.177-55.126 273.265-2.675-.001 7.589-.001 15.179-.001 22.764z" fill="#214a9e"/><path d="m278.386 213.224c-91.088-52.447-182.176 55.084-273.265 2.684 0-7.594 0-15.179 0-22.765 91.088 52.4 182.177-55.129 273.265-2.683z" fill="#214a9e"/><path d="m165.946 134.598c2.573-5.189 5.161-10.358 7.75-15.493 1.443-2.875 2.887-5.738 4.346-8.594-2.902.698-5.789 1.436-8.676 2.208-5.177 1.376-10.354 2.859-15.516 4.389-2.589-3.714-5.178-7.421-7.759-11.119-1.451-2.067-2.895-4.13-4.337-6.197-1.447 2.942-2.891 5.879-4.338 8.817-2.585 5.259-5.173 10.515-7.758 15.759-5.173 1.53-10.343 3.013-15.516 4.393-2.891.769-5.785 1.506-8.676 2.204 1.447 2.157 2.898 4.303 4.346 6.437 2.585 3.824 5.166 7.608 7.75 11.382-2.585 5.185-5.166 10.347-7.75 15.484-1.447 2.879-2.898 5.734-4.346 8.59 2.891-.69 5.785-1.428 8.676-2.196 5.173-1.381 10.343-2.871 15.516-4.394 2.585 3.711 5.173 7.413 7.758 11.108 1.447 2.07 2.891 4.142 4.338 6.196 1.442-2.934 2.886-5.875 4.337-8.816 2.581-5.256 5.17-10.512 7.759-15.752 5.161-1.529 10.339-3.012 15.516-4.393 2.887-.769 5.773-1.506 8.676-2.204-1.459-2.157-2.902-4.299-4.346-6.44-2.589-3.812-5.177-7.604-7.75-11.369zm3.42-16.866c-2.103 4.201-4.221 8.421-6.322 12.657-2.103-3.051-4.205-6.087-6.307-9.115 4.204-1.232 8.408-2.42 12.629-3.542zm-9.209 18.489c-3.075 6.192-6.135 12.413-9.209 18.642-6.135 1.828-12.261 3.702-18.395 5.538-3.067-4.4-6.134-8.81-9.201-13.241 3.067-6.193 6.134-12.409 9.201-18.638 6.134-1.832 12.26-3.71 18.395-5.542 3.074 4.397 6.134 8.809 9.209 13.241zm-18.403-26.411c2.102 3.008 4.204 6.013 6.307 9.024-4.205 1.263-8.409 2.542-12.614 3.809 2.103-4.275 4.205-8.555 6.307-12.833zm-27.612 23.964c4.208-1.126 8.421-2.314 12.629-3.546-2.106 4.259-4.208 8.503-6.314 12.742-2.106-3.054-4.208-6.117-6.315-9.196zm0 31.883c2.106-4.213 4.208-8.44 6.315-12.677 2.106 3.06 4.208 6.104 6.314 9.131-4.208 1.223-8.42 2.416-12.629 3.546zm27.612 7.907c-2.103-3.013-4.205-6.017-6.307-9.021 4.205-1.271 8.409-2.549 12.614-3.813-2.103 4.275-4.205 8.551-6.307 12.834zm14.983-20.411c2.102-4.26 4.204-8.511 6.307-12.747 2.102 3.051 4.22 6.118 6.322 9.201-4.221 1.13-8.425 2.314-12.629 3.546z" fill="#214a9e"/></g></g></svg>