<?xml version="1.0" encoding="iso-8859-1"?>
<!-- Generator: Adobe Illustrator 19.0.0, SVG Export Plug-In . SVG Version: 6.00 Build 0)  -->
<svg version="1.1" id="Layer_1" xmlns="http://www.w3.org/2000/svg" xmlns:xlink="http://www.w3.org/1999/xlink" x="0px" y="0px"
	 viewBox="0 0 512 512" style="enable-background:new 0 0 512 512;" xml:space="preserve">
<g>
	<g>
		<path d="M489.352,316.847l-82.972-82.972c-7.382-7.383-19.353-7.383-26.736,0c-3.692,3.692-5.538,8.53-5.538,13.369
			c0,4.839,1.846,9.677,5.538,13.368l82.972,82.972c15.455,15.456,15.455,40.604-0.001,56.06
			c-7.487,7.487-17.441,11.609-28.03,11.609c-10.587,0-20.543-4.123-28.03-11.609c0,0-82.946-82.947-82.971-82.972
			c-14.86-14.86-15.092-40.967,0-56.06c3.692-3.692,5.538-8.53,5.538-13.368c0-4.839-1.846-9.677-5.538-13.369
			c-7.382-7.383-19.353-7.383-26.736,0c-5.621,5.621-10.261,11.958-13.858,18.801h-13.092
			c-8.461-33.598-38.921-58.546-75.109-58.546H77.452C34.744,194.13,0,228.875,0,271.581c0,42.707,34.744,77.452,77.452,77.452
			H194.79c36.187,0,66.648-24.949,75.108-58.546h4.308c0.465,19.996,8.448,38.729,22.64,52.921l82.971,82.972
			c15.098,15.098,34.933,22.648,54.766,22.648s39.669-7.55,54.767-22.649C519.55,396.181,519.55,347.045,489.352,316.847z
			 M136.121,290.487h93.503c-6.724,12.342-19.817,20.736-34.833,20.736H77.452c-21.857,0-39.64-17.783-39.64-39.641
			c0-21.859,17.783-39.64,39.64-39.64H194.79c15.016,0,28.109,8.393,34.833,20.734h-93.503c-10.441,0-18.906,8.465-18.906,18.906
			S125.68,290.487,136.121,290.487z"/>
	</g>
</g>
<g>
	<g>
		<path d="M259.196,143.586L212.151,84.99c-6.536-8.141-18.436-9.444-26.578-2.906c-8.142,6.538-9.443,18.437-2.906,26.578
			l47.045,58.596c3.734,4.652,9.218,7.071,14.754,7.071c4.152,0,8.334-1.362,11.824-4.164
			C264.431,163.626,265.732,151.727,259.196,143.586z"/>
	</g>
</g>
<g>
	<g>
		<path d="M422.017,107.936c-6.536-8.14-18.436-9.444-26.578-2.906l-58.596,47.046c-8.142,6.538-9.443,18.437-2.906,26.579
			c3.734,4.652,9.22,7.071,14.754,7.071c4.152,0,8.334-1.362,11.824-4.164l58.596-47.046
			C427.252,127.978,428.553,116.078,422.017,107.936z"/>
	</g>
</g>
<g>
	<g>
		<path d="M307.284,63.087c-10.373-1.139-19.714,6.36-20.848,16.739l-8.664,79.239c-1.136,10.38,6.36,19.715,16.738,20.849
			c0.7,0.077,1.391,0.113,2.078,0.113c9.52,0,17.712-7.172,18.771-16.853l8.664-79.239
			C325.158,73.557,317.663,64.223,307.284,63.087z"/>
	</g>
</g>
<g>
</g>
<g>
</g>
<g>
</g>
<g>
</g>
<g>
</g>
<g>
</g>
<g>
</g>
<g>
</g>
<g>
</g>
<g>
</g>
<g>
</g>
<g>
</g>
<g>
</g>
<g>
</g>
<g>
</g>
</svg>
