<svg id="Layer_1" height="512" viewBox="0 0 100 100" width="512" xmlns="http://www.w3.org/2000/svg"><g><path d="m64.499 58.733h-29.002c-12.162 1.111-21.688 11.335-21.688 23.788 0 11.895 8.691 12.479 20.073 12.479 1.242 0 2.515-.006 3.817-.006h24.604c1.293 0 2.569.006 3.811.006 11.382 0 20.078-.583 20.078-12.479-.004-12.454-9.531-22.679-21.693-23.788z" fill="rgb(0,0,0)"/><path d="m54.391 46.439h3.656c1.205 0 2.351.41 3.274 1.14 2.104-.282 4.091-.829 5.813-1.574.497-.736.929-1.518 1.327-2.319v-8.001c0-1.809.673-3.494 1.84-4.778-1.705-9.679-10.135-17.037-20.303-17.037-10.165 0-18.597 7.359-20.302 17.038 1.166 1.283 1.84 2.968 1.84 4.777v8.001c3.381 6.786 10.368 11.458 18.461 11.458.126 0 .248-.016.373-.019-.781-.923-1.271-2.099-1.271-3.399.001-2.915 2.375-5.287 5.292-5.287z" fill="rgb(0,0,0)"/><path d="m24.177 49.469h.231c2.536 0 4.594-2.058 4.594-4.603v-9.182c0-1.804-1.041-3.358-2.556-4.111.655-12.425 10.967-22.33 23.551-22.33s22.9 9.904 23.553 22.33c-1.515.752-2.555 2.307-2.555 4.111v9.182c0 .61.119 1.178.327 1.71-2.679 1.913-6.576 3.279-10.965 3.657-.497-.755-1.344-1.26-2.312-1.26h-3.656c-1.524 0-2.756 1.234-2.756 2.752 0 1.52 1.231 2.756 2.756 2.756h3.656c1.065 0 1.973-.607 2.431-1.487 5.096-.402 9.527-1.958 12.64-4.259.713.462 1.559.733 2.472.733h.23c2.539 0 4.593-2.058 4.593-4.603v-9.182c0-1.829-1.072-3.408-2.619-4.141-.674-14.744-12.882-26.542-27.794-26.542s-27.122 11.798-27.791 26.544c-1.549.732-2.624 2.312-2.624 4.141v9.182c0 2.544 2.06 4.602 4.594 4.602z"/></g></svg>