<svg id="Layer_1" enable-background="new 0 0 100 100" viewBox="0 0 100 100" xmlns="http://www.w3.org/2000/svg"><path d="m16.2615051 93.9495621h11.6966343c1.384594 0 2.5070267-1.1224365 2.5070267-2.5070267v-32.6430397l-16.7106886 16.7106895v15.9323502c0 1.3845901 1.1224346 2.5070267 2.5070276 2.5070267z"/><path d="m41.6056252 61.6806488v29.7618866c0 1.3845901 1.1224327 2.5070267 2.5070267 2.5070267h11.5045586c1.384594 0 2.5070267-1.1224365 2.5070267-2.5070267v-26.1124268l-6.5306129 6.5306091z"/><path d="m69.2646942 54.1896515v37.2528839c0 1.3845901 1.1224365 2.5070267 2.5070267 2.5070267h11.69664c1.3845901 0 2.5070267-1.1224365 2.5070267-2.5070267v-52.0428047l-.9603882-.9603844z"/><path d="m66.8217697 10.3302021 8.2052307 8.2052326-23.4333763 23.4333801-15.3221054-15.3221073c-.9790573-.9790535-2.5664177-.9790535-3.5454712 0l-29.4917552 29.4917508c-.9790549.9790573-.9790549 2.5664177-.0000002 3.545475l6.4351549 6.435154c.9819288.981926 2.5749664.9786224 3.5528126-.00737l21.2765236-21.4538269 15.3272057 15.3272095c.9770622.9770584 2.5604858.9793396 3.5403557.0051003l31.6486549-31.4667683 8.2052383 8.2052326c1.579338 1.5793418 4.2797622.4607886 4.2797622-1.7727357v-26.3984632c0-1.3845925-1.1224365-2.5070267-2.5070267-2.5070267h-26.398468c-2.2335281 0-3.3520737 2.7004242-1.7727356 4.2797632z"/></svg>