<?xml version="1.0" standalone="no"?>
<!DOCTYPE svg PUBLIC "-//W3C//DTD SVG 1.1//EN" "http://www.w3.org/Graphics/SVG/1.1/DTD/svg11.dtd">
<svg xmlns="http://www.w3.org/2000/svg" id="Layer_1" enable-background="new 0 0 512 512" height="512" viewBox="0 0 512 512" width="512"><g><circle cx="96" cy="310.158" r="8"/><path d="m256 222.158c-48.523 0-88 39.477-88 88s39.477 88 88 88 88-39.477 88-88-39.477-88-88-88zm.395 80.002c17.463.212 31.605 14.485 31.605 31.998 0 14.355-9.502 26.533-22.546 30.575-.854.265-1.454 1.03-1.454 1.924v7.227c0 4.261-3.215 7.981-7.467 8.257-4.659.302-8.533-3.388-8.533-7.983v-7.469c0-.88-.557-1.68-1.398-1.939-12.891-3.968-22.335-15.877-22.597-29.991-.082-4.451 3.192-8.401 7.639-8.593 4.58-.198 8.355 3.457 8.355 7.992 0 9.076 7.596 16.411 16.765 15.982 8.139-.381 14.837-7.078 15.217-15.217.429-9.168-6.906-16.765-15.982-16.765-17.645 0-32-14.355-32-32 0-14.355 9.502-26.533 22.546-30.575.854-.265 1.454-1.03 1.454-1.924v-7.227c0-4.261 3.215-7.981 7.467-8.257 4.659-.302 8.533 3.388 8.533 7.983v7.469c0 .88.557 1.68 1.398 1.939 12.891 3.968 22.335 15.877 22.597 29.991.082 4.451-3.192 8.401-7.639 8.593-4.58.198-8.355-3.457-8.355-7.992 0-8.822-7.178-16-16-16-8.879 0-16.093 7.271-15.999 16.172.093 8.83 7.563 15.723 16.394 15.83z"/><path d="m488 174.158h-464c-13.233 0-24 10.767-24 24v224c0 13.233 10.767 24 24 24h464c13.233 0 24-10.767 24-24v-224c0-13.234-10.767-24-24-24zm-320 240h-104c-4.396 0-8.016-3.546-8-7.942.032-8.868-7.19-16.09-16.058-16.058-4.396.016-7.942-3.604-7.942-8v-144c0-4.396 3.546-8.016 7.942-8 8.868.032 16.09-7.19 16.058-16.058-.016-4.396 3.604-7.942 8-7.942h103.726c4.261 0 7.981 3.215 8.257 7.467.302 4.659-3.388 8.533-7.983 8.533h-94.78c-1.292 0-2.432.83-2.839 2.057-3.176 9.57-10.755 17.149-20.324 20.324-1.227.407-2.057 1.547-2.057 2.839v125.559c0 1.292.83 2.432 2.057 2.839 9.57 3.176 17.149 10.755 20.324 20.324.407 1.226 1.547 2.057 2.839 2.057h94.505c4.261 0 7.981 3.215 8.257 7.467.303 4.66-3.388 8.534-7.982 8.534zm-48-104c0 13.233-10.767 24-24 24s-24-10.767-24-24 10.767-24 24-24 24 10.766 24 24zm136 104c-57.346 0-104-46.654-104-104s46.654-104 104-104 104 46.654 104 104-46.654 104-104 104zm224-32c0 4.396-3.546 8.016-7.942 8-8.868-.032-16.09 7.19-16.058 16.058.016 4.396-3.604 7.942-8 7.942h-103.726c-4.261 0-7.981-3.215-8.257-7.467-.302-4.659 3.388-8.533 7.983-8.533h94.78c1.292 0 2.432-.83 2.839-2.057 3.176-9.57 10.755-17.149 20.324-20.324 1.226-.407 2.057-1.547 2.057-2.839v-125.56c0-1.292-.83-2.432-2.057-2.839-9.57-3.176-17.149-10.755-20.324-20.324-.407-1.226-1.547-2.057-2.839-2.057h-94.505c-4.261 0-7.981-3.215-8.257-7.467-.302-4.659 3.388-8.533 7.983-8.533h104c4.396 0 8.016 3.546 8 7.942-.032 8.868 7.19 16.09 16.058 16.058 4.396-.016 7.942 3.604 7.942 8v144zm-88-72c0-13.233 10.767-24 24-24s24 10.767 24 24-10.767 24-24 24-24-10.767-24-24z"/><circle cx="416" cy="310.158" r="8"/><path d="m481.95 133.248c-1.648-13.226-13.768-22.634-27.14-20.79l-305.607 43.71c-1.229.176-1.1 1.99.142 1.99h333.45c1.203 0 2.134-1.054 1.985-2.248z"/><path d="m437.144 98.821c1.174-.168 1.936-1.313 1.648-2.463l-3.083-12.34c-3.24-13.001-16.495-20.859-29.6-17.33l-251.482 70.528c-1.202.337-.831 2.13.405 1.953 63.196-9.037 235.581-33.686 282.112-40.348z"/></g></svg>