<svg id="Layer_1" viewBox="0 0 512 512" xmlns="http://www.w3.org/2000/svg" data-name="Layer 1"><path d="m367.661 174.984-54.747 54.746c-18.873-15.244-42.086-24.39-67.617-22.977-72.941 4.038-99.717 63.347-81.825 128.705a191.226 191.226 0 0 0 11.928 31.785l-.4.4a13.7 13.7 0 0 1 -19.338 0l-125.668-125.677a13.7 13.7 0 0 1 0-19.338l192.655-192.656c2.412-2.411 5.249-4.07 8.659-3.967l121.979 3.695c9.286.281 14.366 5.361 14.647 14.647l3.694 121.979c.1 3.41-1.556 6.247-3.967 8.659zm-37.644 99.343c-17.239-29.858-47.164-53.628-83.836-51.6-123.515 6.838-83.835 194.753 83.836 263.273 167.67-68.52 207.351-256.435 83.835-263.271-36.671-2.03-66.6 21.74-83.835 51.6zm-26.472-180.239a19.441 19.441 0 1 0 -.018-27.512 19.454 19.454 0 0 0 .018 27.512z" fill-rule="evenodd"/></svg>