<svg id="Capa_1" enable-background="new 0 0 512 512" height="512" viewBox="0 0 512 512" width="512" xmlns="http://www.w3.org/2000/svg"><g><path d="m302.327 167.089c-13.493 0-26.179 5.255-35.721 14.796-5.857 5.858-15.355 5.858-21.213 0-9.849-9.848-22.784-14.772-35.721-14.772-12.936 0-25.871 4.924-35.72 14.772-9.541 9.542-14.796 22.227-14.796 35.72s5.255 26.179 14.796 35.72l82.048 82.046 82.047-82.046c9.541-9.542 14.796-22.227 14.796-35.72s-5.255-26.179-14.796-35.72-22.227-14.796-35.72-14.796z"/><path d="m467.315 69.627-206.572-68.857c-3.078-1.026-6.408-1.026-9.486 0l-206.571 68.857c-6.125 2.042-10.257 7.774-10.257 14.23v126.541c0 136.707 87.137 257.603 216.828 300.833 1.539.513 3.142.77 4.743.77s3.204-.256 4.743-.77c129.692-43.231 216.828-164.126 216.828-300.833v-126.541c0-6.456-4.131-12.188-10.256-14.23zm-108.055 204.911-92.653 92.653c-2.929 2.929-6.768 4.394-10.606 4.394s-7.678-1.464-10.606-4.394l-92.653-92.653c-15.208-15.207-23.583-35.426-23.583-56.933s8.375-41.726 23.583-56.934c28.059-28.06 71.852-31.036 103.249-8.937 13.468-9.517 29.51-14.646 46.338-14.646 21.507 0 41.726 8.375 56.933 23.583 15.208 15.207 23.583 35.426 23.583 56.933s-8.377 41.727-23.585 56.934z"/></g></svg>