<svg id="Glyph" viewBox="0 0 64 64" xmlns="http://www.w3.org/2000/svg"><path d="m20 33.78c.49-.26 1.1-.07 1.35.41 3.83 7.26 9.85 14.79 14.09 19.68 10.92-36.03-19.47-39.3-26.1-39.59-.73-.04-1.38.45-1.56 1.16-9.68 37.97 19.58 39.7 26.06 39.63-4.31-4.98-10.37-12.58-14.26-19.94-.25-.49-.07-1.1.42-1.35z"/><path d="m35.44 53.87s-.02.07-.03.1c-.19.64-.78 1.09-1.45 1.1h-.12c2.94 3.4 5.05 5.58 5.1 5.63.2.2.46.3.72.3s.5-.09.7-.28c.39-.39.4-1.02.02-1.42-.05-.05-2.09-2.14-4.94-5.43z"/><path d="m56.22 5.19c-.18-.7-.83-1.19-1.56-1.16-4.5.2-19.92 1.78-25.97 14.01 2.45 1.61 4.74 3.66 6.6 6.28 1.12 1.58 2.02 3.3 2.72 5.14 1.48-2.56 2.84-5.19 3.85-7.65.21-.51.79-.75 1.3-.55.51.21.76.79.55 1.3-1.26 3.08-3.02 6.35-4.87 9.44.92 3.5 1.17 7.41.74 11.7 10.37-2.61 23.62-11.15 16.64-38.52z"/></svg>