<svg id="bold" enable-background="new 0 0 24 24" height="512" viewBox="0 0 24 24" width="512" xmlns="http://www.w3.org/2000/svg"><path d="m12 4c-1.103 0-2-.897-2-2s.897-2 2-2 2 .897 2 2-.897 2-2 2z"/><path d="m15.25 8h-6.5c-.414 0-.75-.336-.75-.75 0-1.241 1.01-2.25 2.25-2.25h3.5c1.24 0 2.25 1.009 2.25 2.25 0 .414-.336.75-.75.75z"/><circle cx="20" cy="18.5" r="1.5"/><path d="m22.25 24h-4.5c-.414 0-.75-.336-.75-.75 0-1.241 1.01-2.25 2.25-2.25h1.5c1.24 0 2.25 1.009 2.25 2.25 0 .414-.336.75-.75.75z"/><circle cx="12" cy="18.5" r="1.5"/><path d="m14.25 24h-4.5c-.414 0-.75-.336-.75-.75 0-1.241 1.01-2.25 2.25-2.25h1.5c1.24 0 2.25 1.009 2.25 2.25 0 .414-.336.75-.75.75z"/><circle cx="4" cy="18.5" r="1.5"/><path d="m6.25 24h-4.5c-.414 0-.75-.336-.75-.75 0-1.241 1.01-2.25 2.25-2.25h1.5c1.24 0 2.25 1.009 2.25 2.25 0 .414-.336.75-.75.75z"/><path d="m18 9h-12c-.553 0-1 .448-1 1s.447 1 1 1h.605l.655 6.11c.069.687.603.89 1.291.89.245-1.692 1.691-3 3.449-3s3.204 1.308 3.449 3c.688 0 1.222-.203 1.291-.89l.655-6.11h.605c.553 0 1-.448 1-1s-.447-1-1-1z"/></svg>