<svg id="Layer_1" enable-background="new 0 0 512 512" viewBox="0 0 512 512" xmlns="http://www.w3.org/2000/svg"><path d="m87.89 131.56c0-51.242 41.54-92.782 92.782-92.782s92.782 41.54 92.782 92.782-41.54 92.781-92.782 92.781c-51.242.001-92.782-41.539-92.782-92.781zm-74.333 234.186c-2.976 12.609-4.557 25.741-4.557 39.224v14.705c0 7.332 5.981 13.315 13.315 13.315h69.51l17.035-67.245h-95.303zm231.089 33.622c0-27.323 22.3-49.622 49.622-49.622h11.593l17.502-69.089c.854-3.37-1.666-6.608-5.143-6.608h-165.498c-2.461 0-4.539 1.617-5.143 4.002l-47.767 188.562c-.854 3.37 1.667 6.608 5.143 6.608h165.5c2.46 0 4.538-1.617 5.143-4.003l5.571-21.993c-21.006-5.774-36.523-25.072-36.523-47.857zm-130.44-54.729-27.424-27.424c-3.124-3.124-3.124-8.189 0-11.312 3.124-3.124 8.189-3.124 11.312 0l20.684 20.684 13.29-52.464c2.402-9.482 10.871-16.073 20.653-16.073h116.469c-25.888-15.695-56.197-24.749-88.518-24.749-75.121 0-139.365 48.905-162.491 116.445h94.732zm388.794-265.465v143.127c0 5.685-4.652 10.337-10.337 10.337h-168.755c-5.685 0-10.337-4.652-10.337-10.337v-143.127c0-5.685 4.652-10.337 10.337-10.337h53.75v40.566c0 3.862 4.478 5.982 7.465 3.533l20.266-16.615c1.701-1.395 4.091-1.395 5.793 0l20.266 16.615c2.987 2.449 7.465.33 7.465-3.533v-40.566h53.75c5.685 0 10.337 4.652 10.337 10.337zm-112.927 98.705c0-1.096-.896-1.992-1.992-1.992h-41.505c-1.096 0-1.992.896-1.992 1.992v21.753c0 1.096.896 1.992 1.992 1.992h41.505c1.096 0 1.992-.897 1.992-1.992zm-95.804 187.867c-18.491 0-33.622 15.13-33.622 33.622 0 18.43 15.074 33.623 33.622 33.623h44.759c7.334 0 13.315-5.983 13.315-13.315v-14.706c0-13.484-1.582-26.615-4.558-39.224zm48.9-16c-3.526-10.293-8.007-20.153-13.335-29.474l-7.466 29.474z"/></svg>