<svg id="Capa_1" enable-background="new 0 0 512 512" height="512" viewBox="0 0 512 512" width="512" xmlns="http://www.w3.org/2000/svg"><g><path d="m382.276 216.828c20.569-4.334 39.467-14.516 54.68-29.729 20.701-20.7 32.102-48.224 32.102-77.499s-11.401-56.799-32.102-77.499-48.223-32.101-77.498-32.101-56.799 11.401-77.499 32.102c-15.557 15.557-25.438 34.668-29.666 54.742z"/><path d="m427.548 302.821c-29.136-29.136-76.544-29.137-105.68 0l-166.156 166.156c-8.469 8.468-19.728 13.132-31.705 13.132-11.976 0-23.235-4.664-31.704-13.132l-6.374-6.374c-8.468-8.469-13.133-19.728-13.133-31.705 0-11.976 4.665-23.235 13.133-31.704l13.506-13.506 23.467 23.467 33.155-30.368-65.787-65.786-30.368 33.155 18.398 18.397-13.506 13.506c-29.136 29.136-29.136 76.544 0 105.68l6.374 6.374c14.115 14.115 32.88 21.887 52.84 21.887s38.726-7.772 52.84-21.887l166.156-166.156c17.48-17.48 45.926-17.482 63.408 0l2.803 2.803c8.468 8.469 13.133 19.728 13.133 31.705 0 11.976-4.665 23.235-13.133 31.704l-37.375 37.375 21.136 21.136 37.375-37.375c29.136-29.136 29.136-76.544 0-105.68z"/><path d="m247.857 124.68-145.159 158.477 83.203 83.203 158.477-145.158zm-13 88.385 21.114-21.114 21.136 21.136-21.114 21.114z"/></g></svg>