<svg id="Layer_1" enable-background="new 0 0 32 32" viewBox="0 0 32 32" xmlns="http://www.w3.org/2000/svg"><g><circle cx="8.429" cy="25.286" r="4"/><circle cx="23.571" cy="21.857" r="4"/><g><path d="m10.4287748 27.2855263c-1.1044922 0-2-.8955078-2-2v-17.1425791c0-.9345698.6474609-1.7441401 1.5585938-1.9506831l15.1425791-3.4287109c.5917969-.1337891 1.2148438.0083008 1.6894531.3881836.4755859.3793945.7519531.9545898.7519531 1.5625v17.1430664c0 1.1044922-.8955078 2-2 2s-2-.8955078-2-2v-14.6396485l-11.1425791 2.5229487v15.5449228c0 1.1044923-.8955078 2.0000001-2 2.0000001z"/></g><g><path d="m10.4268217 16c-.9130859 0-1.7382813-.6303711-1.9482422-1.5585938-.2441406-1.0776367.4316406-2.1484375 1.5087891-2.3925781l15.1425791-3.4287109c1.0751953-.2441406 2.1474609.4321289 2.3916016 1.5087891.2441406 1.0776367-.4316406 2.1484375-1.5087891 2.3925781l-15.1425791 3.4287109c-.1484375.0336914-.296875.0498047-.4433594.0498047z"/></g></g></svg>