<svg id="Layer_1" viewBox="0 0 64 64" xmlns="http://www.w3.org/2000/svg" data-name="Layer 1"><path d="m41.296 4 2.554 6.313h4.898l-4.261-6.313z"/><path d="m24.452 43.621-.32-.321c-.245-.245-.567-.367-.888-.367s-.644.123-.888.367l-3.833 3.832c-.489.49-.489 1.287 0 1.776l.321.321c.489.489 1.286.49 1.776 0l3.832-3.832c.489-.49.489-1.287 0-1.776z"/><path d="m34.869 58.881s-.008.004-.012.008l-1.137 1.137c.4.016.805-.118 1.109-.422.277-.277.429-.651.429-1.054 0-.018-.005-.036-.005-.054l-.385.385z"/><path d="m28.332 48.021c0-.335-.131-.65-.368-.887l-.321-.322c-.489-.489-1.286-.49-1.776 0l-3.832 3.833c-.237.237-.368.553-.368.888s.131.65.368.887l.321.322c.49.49 1.287.489 1.776 0l3.832-3.833c.237-.237.368-.553.368-.888z"/><path d="m35.751 4 .32 2.39.526 3.923h5.095l-2.554-6.313z"/><path d="m33.512 32.289c-.246.176-.478.374-.71.571l-2.947 2.941-1.721 1.721c-.008.008-.017.015-.025.022-.026.026-.052.05-.075.078-.393.485-.354 1.228.098 1.68l.317.317c.491.491 1.29.491 1.781 0l4.601-4.592c.29-.289.711-.361 1.069-.221.004.002.009 0 .013.003.121.049.234.122.332.22v.001l9.742 9.743c.582-.795 1.021-1.674 1.307-2.623.005-.018.019-.03.025-.047.024-.067.061-.124.099-.184.032-.051.06-.104.1-.148.044-.049.098-.084.151-.123.05-.037.096-.076.152-.103s.116-.039.177-.055c.066-.018.13-.036.2-.04.018-.001.034-.011.053-.011h3.973v-10.845h-13.471c-1.887 0-3.7.586-5.243 1.695z"/><rect height="2.966" rx="1.256" transform="matrix(.707 -.707 .707 .707 -29.329 35.768)" width="7.931" x="24.545" y="51.805"/><path d="m39.45 17.204c1.502 0 2.725-1.223 2.725-2.725v-2.164h-5.45v2.164c0 1.502 1.223 2.725 2.725 2.725z"/><path d="m35.537 37.149-3.893 3.885c-.635.635-1.47.952-2.304.952s-1.669-.317-2.305-.953l-.317-.317c-1.186-1.186-1.284-3.062-.228-4.364.017-.02.033-.034.049-.053.008-.009.01-.02.019-.028.039-.042.073-.073.108-.108.018-.018.033-.037.052-.056l1.872-1.868 1.945-1.945c-1.297-.957-2.821-1.545-4.469-1.704h-14.296v10.849h3.99c.017 0 .032.009.049.01.074.004.141.023.211.043.057.016.114.026.166.051.059.028.107.069.16.108.051.038.103.072.146.118.041.045.069.098.101.15.037.059.074.116.098.182.006.017.02.029.025.047.284.937.739 1.83 1.331 2.63l1.352-1.351s.003-.006.006-.009l1.534-1.533c.081-.082.152-.151.237-.222.033-.027.073-.036.108-.058 1.274-.967 3.097-.882 4.261.281l.321.321c.627.628.942 1.45.949 2.274.823.015 1.641.317 2.241.917l.321.322c.601.6.933 1.395.948 2.243.813.015 1.622.327 2.242.947l.321.321c.608.608.943 1.415.951 2.273.822.015 1.64.317 2.239.917l.321.321c.615.615.954 1.433.954 2.302 0 .505-.127.987-.343 1.428.469.092.969-.017 1.331-.38.28-.28.435-.652.435-1.049s-.154-.769-.435-1.048v-.001l-4.219-4.219c-.391-.391-.391-1.023 0-1.414s1.023-.391 1.414 0l4.218 4.218s.001 0 .001 0c.575.576 1.513.577 2.088 0 .578-.578.578-1.52 0-2.098l-4.316-4.316c-.391-.391-.391-1.023 0-1.414s1.023-.391 1.414 0l4.316 4.316c.578.578 1.52.578 2.098 0 .277-.277.43-.648.43-1.044 0-.402-.153-.776-.43-1.054l-9.82-9.82z"/><rect height="2.966" rx="1.256" transform="matrix(.707 -.707 .707 .707 -30.784 39.279)" width="7.931" x="28.056" y="55.316"/><path d="m27.403 10.313.526-3.923.32-2.39h-3.387l-2.554 6.313z"/><path d="m29.275 14.479c0 1.502 1.223 2.725 2.725 2.725s2.725-1.223 2.725-2.725v-2.164h-5.45z"/><path d="m14.375 14.479c0 1.502 1.223 2.725 2.725 2.725s2.725-1.223 2.725-2.725v-2.164h-5.45z"/><path d="m26.209 28.602c.014 0 .026-.005.04-.004 2.146.205 4.127 1 5.779 2.311.107-.084.213-.17.32-.247 1.883-1.353 4.099-2.069 6.408-2.069h9.055v-9.481c-.295.058-.599.092-.91.092-1.52 0-2.86-.734-3.725-1.853-.865 1.119-2.205 1.853-3.725 1.853s-2.86-.734-3.725-1.853c-.865 1.119-2.205 1.853-3.725 1.853s-2.86-.734-3.725-1.853c-.865 1.119-2.205 1.853-3.725 1.853s-2.86-.734-3.725-1.853c-.865 1.119-2.205 1.853-3.725 1.853-.312 0-.615-.034-.91-.092v9.478h9.96c.021 0 .038.011.059.012z"/><path d="m49.625 14.479v-2.164h-5.45v2.164c0 1.502 1.222 2.725 2.725 2.725s2.725-1.223 2.725-2.725z"/><path d="m33.732 4h-3.464l-.527 3.924-.32 2.389h5.158l-.32-2.389z"/><path d="m21.825 14.479c0 1.502 1.223 2.725 2.725 2.725s2.725-1.223 2.725-2.725v-2.164h-5.45z"/><path d="m15.252 10.313h4.898l2.554-6.313h-3.191z"/></svg>