<svg viewBox="0 0 511.99912 511" xmlns="http://www.w3.org/2000/svg"><path d="m315.789062 272.316406c74.394532 0 134.910157-60.515625 134.910157-134.910156 0-74.390625-60.515625-136.90625-134.910157-136.90625-74.394531 0-134.910156 62.515625-134.910156 136.90625 0 74.394531 60.515625 134.910156 134.910156 134.910156zm0-119.917968c-24.796874 0-44.96875-20.171876-44.96875-44.96875 0-19.519532 12.570313-36 29.980469-42.210938v-17.75c0-8.285156 6.703125-14.992188 14.988281-14.992188 8.285157 0 14.988282 6.707032 14.988282 14.992188v17.75c17.410156 6.210938 29.980468 22.691406 29.980468 42.210938 0 8.285156-6.703124 14.988281-14.988281 14.988281-8.285156 0-14.992187-6.703125-14.992187-14.988281 0-8.273438-6.71875-14.992188-14.988282-14.992188-8.269531 0-14.988281 6.71875-14.988281 14.992188 0 8.269531 6.71875 14.988281 14.988281 14.988281 24.796876 0 44.96875 20.171875 44.96875 44.96875 0 19.519531-12.570312 36-29.980468 42.210937v17.75c0 8.285156-6.703125 14.992188-14.988282 14.992188-8.285156 0-14.988281-6.707032-14.988281-14.992188v-17.75c-17.410156-6.210937-29.980469-22.691406-29.980469-42.210937 0-8.285157 6.703126-14.988281 14.988282-14.988281s14.992187 6.703124 14.992187 14.988281c0 8.273437 6.71875 14.992187 14.988281 14.992187 8.269532 0 14.988282-6.71875 14.988282-14.992187 0-8.269531-6.71875-14.988281-14.988282-14.988281zm0 0"/><path d="m14.988281 482.179688h60.960938c8.277343 0 14.988281-6.714844 14.988281-14.992188v-179.878906c0-24.835938-20.132812-44.96875-44.96875-44.96875h-30.980469c-8.277343 0-14.988281 6.710937-14.988281 14.988281v209.859375c0 8.277344 6.710938 14.992188 14.988281 14.992188zm0 0"/><path d="m472.085938 373.050781s-160.492188 49.167969-171.285157 49.167969c-8.996093 0-18.289062-2.101562-26.984375-6.296875l-55.164062-27.882813c-6.59375-2.996093-14.089844-1.199218-18.585938 4.195313-5.097656 6.597656-14.691406 7.496094-20.984375 2.402344-6.597656-5.097657-7.796875-14.394531-2.402343-20.988281 13.191406-16.488282 36.277343-21.585938 55.164062-12.292969-3.546875-1.761719 52.457031 26.089843 55.464844 27.582031 15.339844 7.671875 32.894531 1.363281 40.171875-13.191406 7.628906-15.257813 1.199219-33.578125-13.191407-40.171875 8.039063 4.027343-121.335937-60.8125-124.417968-62.359375-13.308594-6.652344-27.746094-8.183594-43.171875-3.894532l-25.78125 8.257813v181.566406l77.351562 38.621094c35.976563 18.289063 80.042969 18.589844 113.621094 3.300781 2.996094-1.199218 181.78125-72.550781 182.078125-72.550781 16.492188-7.199219 21.886719-27.882813 15.289062-38.976563-5.996093-13.789062-21.882812-21.585937-37.171874-16.488281zm0 0"/></svg>