<svg enable-background="new 0 0 64 64" height="512" viewBox="0 0 64 64" width="512" xmlns="http://www.w3.org/2000/svg"><g id="Layer_6"><g><path d="m10.7179184 26.2904034c.6829576.5916672 1.3797331 1.2918968 2.1288157 2.1406593.7796774.8822575 1.5188913 1.815403 2.2343559 2.7174606.486558.6128864.9721289 1.226263 1.4725046 1.8268147 1.311636 1.5746498 2.9331665 3.292408 5.0165844 4.0982399 1.2208366.4712601 2.9488945.6444702 4.1401234-.2827568.3116245-.2433395.5462685-.5452194.7458134-.8582611-3.1156864-4.2078533-6.8677616-5.9668159-6.9170475-5.9895763-.2536411-.1154709-.3661518-.4150047-.2506809-.6691418.1154728-.2536411.4155006-.3656578.6691418-.2506809.2064533.0938835 3.8347912 1.7930126 6.9981613 5.8774967.0453377-.132.0929565-.2665939.1254635-.3861961 0-.0004959 0-.0004959 0-.0004959.3217411-1.1857986.2704201-2.4693069-.1431046-3.6141491-.4845848-1.3442039-1.5119839-2.6256752-2.9706707-3.7058754-2.1090164-1.563303-4.7668285-2.51964-7.6851902-2.7668667-1.4192104-.118927-4.7648535-.2714081-7.3081818.6301556.1559353.1070824.3177929.2131786.4826107.3217411.4243812.2788085.8635664.5669936 1.261301.9114322z"/><path d="m29.8422852 29.6005802c.0741444-.4307976.1547642-.8459263.2430954-1.2400837 1.1912289-5.3156242 4.6839256-11.2825623 8.8991165-15.2011824.2042961-.1894913.5240631-.1791277.7145424.0261545.1904755.2042952.1786346.5240612-.0256615.7140465-4.0770226 3.7888374-7.4522743 9.5519753-8.6010647 14.6820545-.0990639.4420242-.1877022.9147034-.268507 1.4074306.2218742.0478039.4498558.0795708.6978226.0803108.706646-.000494 1.4586258-.1737003 2.4258232-.5521889 4.9553909-1.9367962 9.0895958-6.2926273 11.0595131-11.6511211 1.7271347-4.7002715 1.8534622-10.1194619.3750343-15.366001-2.1909904 2.8808589-5.2089729 4.9924035-8.135231 7.0402908-2.4051552 1.6831532-4.8921661 3.4231176-6.8778782 5.5672302-.6227551.6716089-1.1754379 1.3708515-1.6432438 2.0789757-2.1465797 3.2508984-2.8157215 8.2472496.0582294 11.5070915.3369141.3822518.7024499.6812306 1.0784093.906992z"/><path d="m47.4128494 33.0883408c-1.9541283-.369606-3.9585915-.7485886-5.934433-.7485886-.6009789 0-1.1990623.0350342-1.7931938.1164589-1.8959007.2585754-3.5470428.9701538-4.7757721 2.0572624-.9435081.8359337-1.6580505 1.9230385-2.0646667 3.1428909-.2551842.7644386-.3662758 1.394783-.3425255 1.914341 4.3642807-1.9039192 9.2481194-2.5602303 14.5839157-1.9029922.2773285.03405.4747162.285656.4401741.5629845-.0335579.2773285-.2872009.4806366-.5625534.4396782-5.1995354-.6374969-9.9471207.0083885-14.1750183 1.8784447.0373802.0588455.0709343.1199112.1162109.1743774.4145126.4969215 1.0510826.8240891 1.6195564 1.0782242 2.473259 1.1058578 5.3758278 1.6348572 8.3928223 1.5282669 3.128582-.1100426 5.9413414-.9000816 8.1312866-2.2847519 2.7801895-1.7562485 4.7668877-4.55513 6.3430214-7.2287331-3.4138031.5132065-6.8818893-.1421166-9.9788246-.7278633z"/><path d="m45.7143364 53.9381752c-1.8988609 0-3.7167931.7031898-5.1181755 1.9792366-.1253395.1134949-.2970657.1593895-.4628716.1164551-.1638298-.0409546-.2970657-.1613617-.3533211-.3206902-1.6037674-4.5048599-5.8969307-7.5317841-10.6815224-7.5317841-4.9879627 0-9.3373165 3.1966782-10.8226509 7.9541283-.0483608.152977-.1658058.2743683-.3177929.3271713-.1500149.0518112-.3177929.0301018-.4510288-.0611916-1.1626091-.7983665-2.5265503-1.2202797-3.9447126-1.2202797-3.5983591 0-6.6154156 2.7899971-6.9539337 6.318779h46.7122459c-.0246744-4.1737403-3.4275598-7.5618247-7.6062364-7.5618247z"/><path d="m31.5285854 39.999897c-.4852638.2370491-.9572639.5053101-1.4287109.774868.0192451-3.0921249.1485348-6.7506866.555891-9.7866192l-.9782982-.318285c-.3309917 2.3669739-.4905682 5.0928841-.5568161 7.6532974-.4571953-.8952713-.9512177-1.7174492-1.4704075-2.4686279l-.5739021.9605331c.7490215 1.1301613 1.4395676 2.4149666 2.0064983 3.8663139-.0203552 3.1367188.0744514 5.696701.1083775 6.4929123l1.0132732.0516281c-.0228233-.5420723-.1016541-2.6140175-.1071453-5.296257.5753822-.3475227 1.16008-.6741371 1.7579155-.9699707z"/></g></g></svg>