<svg id="Capa_1" enable-background="new 0 0 512 512" height="512" viewBox="0 0 512 512" width="512" xmlns="http://www.w3.org/2000/svg"><g><ellipse cx="256" cy="342" rx="120" ry="50"/><path d="m256 482c-35.923 0-70.155-6.021-96.392-16.952-9.389-3.912-17.168-8.188-23.608-12.647v9.599c0 27.614 53.726 50 120 50s120-22.386 120-50v-9.599c-6.44 4.458-14.219 8.735-23.608 12.647-26.237 10.931-60.469 16.952-96.392 16.952z"/><path d="m256 422c-35.923 0-70.155-6.021-96.392-16.952-9.389-3.912-17.168-8.188-23.608-12.647v9.599c0 27.614 53.726 50 120 50s120-22.386 120-50v-9.599c-6.44 4.458-14.219 8.735-23.608 12.647-26.237 10.931-60.469 16.952-96.392 16.952z"/><path d="m240.989 262.366c.002-.122.011-.244.011-.366 0-27.614-53.726-50-120-50s-120 22.386-120 50c0 26.831 50.723 48.723 114.393 49.944 7.586-11.396 20.974-23.308 44.215-32.992 22.552-9.396 51.018-15.151 81.381-16.586z"/><path d="m1 372.401v9.599c0 25.498 45.806 46.536 105 49.612v-29.977c-30.367-1.434-58.837-7.189-81.392-16.587-9.389-3.913-17.168-8.189-23.608-12.647z"/><path d="m106.003 341.635c-30.368-1.434-58.839-7.189-81.394-16.587-9.39-3.913-17.169-8.189-23.609-12.647v9.599c0 25.498 45.806 46.536 105 49.612v-28.612l.011.006c-.006-.341-.011-.678-.011-1.006 0-.12.002-.243.003-.365z"/><path d="m196 90h15v75c0 8.284 6.716 15 15 15h60c8.284 0 15-6.716 15-15v-75h15c6.067 0 11.536-3.654 13.858-9.26 2.321-5.605 1.038-12.057-3.252-16.347l-60-60c-5.857-5.857-15.355-5.857-21.213 0l-60 60c-4.29 4.29-5.573 10.741-3.252 16.347 2.323 5.605 7.792 9.26 13.859 9.26z"/><path d="m16 110h15v55c0 8.284 6.716 15 15 15h60c8.284 0 15-6.716 15-15v-55h15c6.067 0 11.536-3.654 13.858-9.26 2.321-5.605 1.038-12.057-3.252-16.347l-60-60c-5.857-5.857-15.355-5.857-21.213 0l-60 60c-4.29 4.29-5.573 10.741-3.252 16.347 2.323 5.605 7.792 9.26 13.859 9.26z"/><path d="m376 110h15v55c0 8.284 6.716 15 15 15h60c8.284 0 15-6.716 15-15v-55h15c6.067 0 11.536-3.654 13.858-9.26 2.321-5.605 1.038-12.057-3.252-16.347l-60-60c-5.857-5.857-15.355-5.857-21.213 0l-60 60c-4.29 4.29-5.573 10.741-3.252 16.347 2.323 5.605 7.791 9.26 13.859 9.26z"/><path d="m511 262c0-27.614-53.726-50-120-50s-120 22.386-120 50c0 .122.009.244.011.366 30.363 1.435 58.829 7.19 81.38 16.586 23.241 9.684 36.629 21.596 44.215 32.992 63.671-1.221 114.394-23.113 114.394-49.944z"/><path d="m406 401.635v29.977c59.194-3.076 105-24.114 105-49.612v-9.599c-6.44 4.458-14.219 8.735-23.608 12.647-22.555 9.398-51.025 15.153-81.392 16.587z"/><path d="m405.997 341.635c.001.122.003.245.003.365 0 .328-.005.665-.011 1.006l.011-.006v28.612c59.194-3.076 105-24.114 105-49.612v-9.599c-6.44 4.458-14.219 8.735-23.608 12.647-22.556 9.398-51.026 15.153-81.395 16.587z"/></g></svg>