<svg id="Layer_1" enable-background="new 0 0 512 512" viewBox="0 0 512 512" xmlns="http://www.w3.org/2000/svg"><path d="m80.281 179.48 74.248-48.25c2.323-1.5 5.422-.839 6.921 1.471 1.508 2.319.852 5.409-1.47 6.919l-50.63 32.901v162.979h-9.997v-156.49l-13.621 8.851c-.843.549-1.793.808-2.72.808-4.951 0-6.898-6.489-2.731-9.189zm46.37 212.189c0-14.504-11.807-26.309-26.311-26.309-14.509 0-26.311 11.801-26.311 26.309 0 14.504 11.786 26.3 26.29 26.312 14.54-.012 26.332-11.812 26.332-26.312zm-26.292 32.311c-29.46.01-54.155 22.557-56.804 51.841l-.197 2.18h113.958l-.197-2.18c-2.643-29.284-27.339-51.831-56.76-51.841zm175.56-331.101c16.235 0 29.443-13.203 29.443-29.439 0-16.235-13.208-29.441-29.443-29.441-16.233 0-29.438 13.208-29.438 29.441s13.205 29.439 29.438 29.439zm-142.318-4.717 48.622 35.021c2.378 1.713 5.244 2.588 8.174 2.505-.01.001.037.001.084.001h40.451c1.655 0 3.001 1.345 3.001 3v189.312c0 10.752 8.745 19.498 19.498 19.498 10.749 0 19.489-8.751 19.489-19.498v-78.241c0-3.949 6.002-3.954 6.002 0v78.241c0 10.753 8.75 19.498 19.503 19.498 10.75 0 19.498-8.748 19.498-19.498v-189.312c0-1.655 1.346-3 3.001-3h40.441c3.066 0 5.71-.664 8.267-2.506l48.621-35.021c6.001-4.322 7.349-12.715 3.029-18.711-4.319-5.996-12.703-7.35-18.697-3.033l-44.291 31.9c-.51.368-1.125.562-1.753.562h-161.233c-.627 0-1.24-.195-1.748-.562l-44.291-31.9c-5.997-4.319-14.387-2.964-18.711 3.032-4.302 5.967-2.925 14.414 3.043 18.712zm-90.283 255.339v47.079h24.688l.164-1.821c1.495-16.601 15.487-29.399 32.171-29.399 16.676 0 30.676 12.803 32.166 29.398l.164 1.821h90.996l.164-1.821c1.495-16.597 15.491-29.399 32.171-29.399 16.683 0 30.675 12.797 32.166 29.398l.164 1.821h91.001l.164-1.821c1.49-16.597 15.488-29.398 32.166-29.398 16.683 0 30.685 12.797 32.18 29.399l.164 1.821h24.678v-47.079h-425.367zm368.323 80.479c-29.423.01-54.107 22.559-56.76 51.84l-.198 2.18h113.964l-.198-2.18c-2.655-29.298-27.35-51.84-56.808-51.84zm26.33-32.311c0-14.508-11.802-26.309-26.311-26.309-14.504 0-26.311 11.805-26.311 26.309s11.795 26.312 26.301 26.312c14.517 0 26.321-11.8 26.321-26.312zm-181.99 32.311c-29.421.01-54.116 22.556-56.761 51.841l-.197 2.18h113.954l-.197-2.18c-2.647-29.299-27.348-51.841-56.799-51.841zm26.33-32.311c0-14.508-11.802-26.309-26.311-26.309-14.504 0-26.311 11.805-26.311 26.309 0 14.5 11.791 26.3 26.29 26.312 14.546-.012 26.332-11.807 26.332-26.312z"/></svg>