<svg enable-background="new 0 0 32 32" viewBox="0 0 32 32" xmlns="http://www.w3.org/2000/svg"><g id="_x30_1_calendar_clock"/><g id="_x30_2_calendar"/><g id="_x30_3_calendar_event"/><g id="_x30_4_calendar_plus"/><g id="_x30_5_calendar_check"/><g id="_x30_6_calendar_x"/><g id="_x30_7_calendar_bell"><path d="m17 2h-2c0-.55.45-1 1-1s1 .45 1 1zm-11-1c-.55 0-1 .45-1 1v.1c.32-.07.66-.1 1-.1h1c0-.55-.45-1-1-1zm5 0c-.55 0-1 .45-1 1h2c0-.55-.45-1-1-1zm10 0c-.55 0-1 .45-1 1h2c0-.55-.45-1-1-1zm5 0c-.55 0-1 .45-1 1h1c.34 0 .68.03 1 .1v-.1c0-.55-.45-1-1-1zm1 1.1v.9c0 .55-.45 1-1 1s-1-.45-1-1v-1h-3v1c0 .55-.45 1-1 1s-1-.45-1-1v-1h-3v1c0 .55-.45 1-1 1s-1-.45-1-1v-1h-3v1c0 .55-.45 1-1 1s-1-.45-1-1v-1h-3v1c0 .55-.45 1-1 1s-1-.45-1-1v-.9c-2.28.46-4 2.48-4 4.9v2h30v-2c0-2.42-1.72-4.44-4-4.9zm-26 8.9v15c0 2.76 2.24 5 5 5h15c-2.21 0-4-1.79-4-4 0-1.48.81-2.77 2-3.46v-2.54c0-2.18 1.18-4.14 3.01-5.19.09-1.57 1.4-2.81 2.99-2.81s2.9 1.24 2.99 2.81c1.83 1.05 3.01 3.01 3.01 5.19v-10zm6 16c-.55 0-1-.45-1-1s.45-1 1-1 1 .45 1 1-.45 1-1 1zm0-5c-.55 0-1-.45-1-1s.45-1 1-1 1 .45 1 1-.45 1-1 1zm0-5c-.55 0-1-.45-1-1s.45-1 1-1 1 .45 1 1-.45 1-1 1zm6 10c-.55 0-1-.45-1-1s.45-1 1-1 1 .45 1 1-.45 1-1 1zm0-5c-.55 0-1-.45-1-1s.45-1 1-1 1 .45 1 1-.45 1-1 1zm0-5c-.55 0-1-.45-1-1s.45-1 1-1 1 .45 1 1-.45 1-1 1zm16 8v-4c0-1.87-1.29-3.43-3.03-3.87.01-.04.03-.08.03-.13v-1c0-.55-.45-1-1-1s-1 .45-1 1v1c0 .05.02.09.03.13-1.74.44-3.03 2-3.03 3.87v4c-1.1 0-2 .9-2 2s.9 2 2 2h3v1c0 .55.45 1 1 1s1-.45 1-1v-1h3c1.1 0 2-.9 2-2s-.9-2-2-2z"/></g><g id="_x30_8_calendar_edit"/><g id="_x30_9_calendar_yesterday"/><g id="_x31_0_calendar_minus"/><g id="_x31_1_calendar_new"/><g id="_x31_2_calendar_event"/><g id="_x31_3_tomorrow"/><g id="_x31_4_calendar_setting"/><g id="_x31_5_calendar_1"/><g id="_x31_6_calendar_31"/><g id="_x31_7_calendar_arrows"/><g id="_x31_8_calendar_search"/><g id="_x31_9_world_clock"/><g id="_x32_0_bell"/><g id="_x32_1_bell_ringing"/><g id="_x32_2_bell_no"/><g id="_x32_3_stopwatch"/><g id="_x32_4_alarm_clock"/><g id="_x32_5_calendar"/><g id="_x32_6_watch"/><g id="_x32_7_calendar_birthday"/><g id="_x32_8_calendar_check"/><g id="_x32_9_calendar_clock"/><g id="_x33_0_calendar_x"/><g id="_x33_1_calendar_love"/><g id="_x33_2_clock"/><g id="_x33_3_24_hours"/><g id="_x33_4_hourglass"/><g id="_x33_5_hourglass"/><g id="_x33_6_hourglass"/></svg>