<svg id="Layer_1" enable-background="new 0 0 512 512" height="512" viewBox="0 0 512 512" width="512" xmlns="http://www.w3.org/2000/svg"><path clip-rule="evenodd" d="m377.381 101.139 26.152 85.617h86.921l-51.623-85.421c-.112-.186-.75-.196-.937-.196zm-179.615 213.402-13.944 62.36c-.876 3.917-2.682 7.43-5.152 10.328.666 1.529 1.178 3.141 1.516 4.816 4.281 5.301 6.71 11.975 6.71 18.996 0 5.147-1.287 9.994-3.557 14.238h20.817v-105.342h78.509v105.343h16v-105.343h78.509v105.343h84.406v-177.154c-3.397.514-6.887.781-10.446.781-20.938 0-41.964-9.588-53.49-27.419-11.526 17.831-32.553 27.419-53.49 27.419-20.938 0-41.964-9.588-53.49-27.418-11.525 17.831-32.553 27.418-53.49 27.418s-41.965-9.588-53.491-27.419c-11.524 17.831-32.554 27.419-53.49 27.419-3.559 0-7.049-.268-10.446-.781v23.444h43.598c12.87 0 25.475 7.709 31.458 19.085v-9.333h191.719v22.615c-62.644 0-125.287 0-187.931 0 .064.865.096 1.738.096 2.617.003 2.689-.335 5.366-.921 7.987zm-54.33-229.402h294.458c.088 0 .176.001.263.002v-31.857c0-7.691-6.293-13.984-13.984-13.984h-268.739c-7.691 0-13.984 6.293-13.984 13.984v31.964c.654-.072 1.316-.109 1.986-.109zm53.829-14.866c-4.418 0-8-3.582-8-8s3.582-8 8-8h61.051c4.418 0 8 3.582 8 8s-3.582 8-8 8zm124.026 0c-4.418 0-8-3.582-8-8s3.582-8 8-8h61.051c4.418 0 8 3.582 8 8s-3.582 8-8 8zm-164.633 318.531c4.418 0 8 3.582 8 8 0 .78-.112 1.534-.321 2.247 3.945 2.532 6.558 6.956 6.558 11.991 0 7.863-6.374 14.238-14.238 14.238-7.863 0-14.238-6.374-14.238-14.238 0-2.237.517-4.354 1.436-6.238h-48.214c.92 1.884 1.436 4.001 1.436 6.238 0 7.863-6.374 14.238-14.238 14.238s-14.238-6.374-14.238-14.238c0-2.237.517-4.354 1.436-6.238h-5.333c-11.322 0-20.556-9.235-20.556-20.556 0-7.474 4.07-14.318 10.555-17.95-7.263-32.481-14.526-64.961-21.788-97.442h-13.071c-4.418 0-8-3.582-8-8s3.582-8 8-8l19.448.03c3.66-.003 6.959 2.53 7.781 6.251l6.358 28.433h109.916c10.237 0 19.343 8.648 19.343 18.984 0 1.355-.17 2.85-.538 4.495l-13.944 62.36c-.822 3.721-4.121 6.254-7.781 6.251l-95.722.03c-2.489 0-4.556 2.067-4.556 4.556s2.067 4.556 4.556 4.556h91.953zm170.901-43.227c2.209-3.814 7.092-5.115 10.906-2.906s5.115 7.092 2.906 10.906l-17.312 29.985c-2.209 3.814-7.092 5.115-10.906 2.906s-5.115-7.092-2.906-10.906zm16.22 9.365c2.209-3.814 7.092-5.115 10.906-2.906s5.115 7.092 2.906 10.906l-17.311 29.984c-2.209 3.814-7.092 5.115-10.906 2.906s-5.115-7.092-2.906-10.906zm-102.73-9.365c2.209-3.814 7.092-5.115 10.906-2.906s5.115 7.092 2.906 10.906l-17.312 29.985c-2.209 3.814-7.092 5.115-10.906 2.906s-5.115-7.092-2.906-10.906zm16.221 9.365c2.209-3.814 7.092-5.115 10.906-2.906s5.115 7.092 2.906 10.906l-17.311 29.984c-2.209 3.814-7.092 5.115-10.906 2.906s-5.115-7.092-2.906-10.906zm-171.873 86.337h410.536c2.326 0 4.223 1.898 4.223 4.224v22.974c0 2.326-1.897 4.223-4.223 4.223h-410.536c-2.326 0-4.224-1.897-4.224-4.223v-22.974c0-2.326 1.897-4.224 4.224-4.224zm301.473-254.523h-88.205v-85.617h62.054zm-166.259-85.617-26.152 85.617h88.206v-85.617zm-42.814 85.617h-86.921l51.623-85.421c.112-.186.75-.196.937-.196h60.513zm317.82 16c-4.966 19.458-25.454 30.152-44.482 30.152-19.026 0-39.519-10.695-44.484-30.152zm-106.979 0c-4.966 19.457-25.457 30.152-44.484 30.152-19.026 0-39.518-10.695-44.484-30.152zm-106.98 0c-4.965 19.457-25.457 30.152-44.484 30.152s-39.518-10.695-44.484-30.152zm-106.98 0c-4.966 19.457-25.457 30.152-44.484 30.152s-39.516-10.694-44.482-30.152z" fill-rule="evenodd"/></svg>