<svg
  id="Capa_1"
  enable-background="new 0 0 512 512"
  height="512"
  viewBox="0 0 512 512"
  width="512"
  xmlns="http://www.w3.org/2000/svg"
>
  <g>
    <g>
      <path
        d="m260.77 288.149 35.31 22.544-35.31 55.446c-8.27 0-16.54-3.16-22.85-9.47l-59.75-59.76-127.79 127.79c-6.27 6.27-16.45 6.27-22.72 0l-22.95-22.96c-6.28-6.27-6.28-16.45 0-22.72l150.61-150.63c12.62-12.61 33.07-12.61 45.69 0z"
      />
    </g>
    <path
      d="m512 98.669v163.1c0 8.87-7.19 16.07-16.07 16.07h-32.46c-8.88 0-16.07-7.2-16.07-16.07v-68.89l-163.79 163.79c-6.31 6.31-14.57 9.47-22.84 9.47v-77.99l140.96-140.95h-68.89c-8.87 0-16.07-7.2-16.07-16.07v-32.46c0-8.88 7.2-16.07 16.07-16.07h163.09c8.88 0 16.07 7.19 16.07 16.07z"
    />
  </g>
</svg>
