<svg id="Glyph" viewBox="0 0 64 64" xmlns="http://www.w3.org/2000/svg"><path d="m28.42 49.71-1.1-.62c-.21-.11-.29-.37-.19-.58l1.19-2.52c.16-.35-.16-.72-.53-.62l-2.49.7c-.23.07-.47-.06-.55-.29l-.43-1.37c-.1-.3-.46-.41-.7-.22l-2.56 1.97c-.33.25-.79-.03-.71-.44l1.18-6.02c.07-.35-.29-.63-.61-.5l-1.55.65c-.21.09-.46 0-.57-.21l-1.87-3.66c-.17-.32-.63-.32-.8 0l-1.87 3.66c-.1.21-.35.3-.57.21l-1.54-.65c-.33-.13-.68.15-.61.5l1.17 6.02c.08.41-.38.69-.71.44l-2.56-1.97c-.24-.19-.6-.08-.7.22l-.43 1.37c-.07.23-.32.36-.55.29l-2.49-.7c-.37-.1-.69.27-.53.62l1.19 2.52c.1.21.02.47-.18.58l-1.11.62c-.29.16-.31.57-.03.76l5.99 4.02c.19.13.25.39.14.59l-.96 1.73c-.19.34.1.73.47.66l5.28-1.05v-3.01l-4.85-2.81c-.47-.28-.64-.89-.36-1.37s.89-.64 1.37-.36l3.84 2.23v-5.16c0-.55.45-1 1-1s1 .45 1 1v5.16l3.85-2.23c.47-.28 1.08-.12 1.36.36s.12 1.09-.36 1.37l-4.85 2.81v3.01l5.28 1.05c.37.07.66-.32.48-.66l-.97-1.73c-.11-.2-.05-.46.14-.59l6-4.02c.27-.19.26-.6-.04-.76z"/><path d="m60 31h-27v-27c0-.55-.45-1-1-1s-1 .45-1 1v27h-27c-.55 0-1 .45-1 1s.45 1 1 1h27v27c0 .55.45 1 1 1s1-.45 1-1v-27h27c.55 0 1-.45 1-1s-.45-1-1-1z"/><path d="m16.44 56.24-.91.18v2.92c0 .56.45 1 1 1s1-.44 1-1v-2.92l-.91-.18c-.06-.02-.12-.02-.18 0z"/><path d="m16.49 26.95c-1.88-2.21-4.38-5.39-6.04-8.54-.25-.49-.07-1.1.42-1.35.49-.26 1.09-.07 1.35.41 1.6 3.03 4.08 6.18 5.93 8.32 4.12-14.75-7.89-16.61-11.37-16.85-.53-.03-1.01.32-1.14.84-3.73 15.28 7.01 17.03 10.85 17.17z"/><path d="m16.97 26.97c-.14 0-.3-.01-.48-.02 1.44 1.68 2.52 2.8 2.62 2.9.2.2.46.3.72.3s.5-.09.7-.28c.39-.39.4-1.02 0-1.42-.02-.03-1.03-1.06-2.39-2.66-.03.13-.07.26-.11.39-.14.47-.58.79-1.07.79z"/><path d="m38.1 16.27-2.02 3.13c-.27.42-.09.98.38 1.15l3.49 1.32.19 3.75c.02.5.5.85.98.71l3.59-.98 2.36 2.9c.31.38.9.38 1.21 0l2.34-2.9 3.62.97c.48.13.96-.22.98-.72l.17-3.73 3.49-1.33c.47-.18.65-.74.37-1.16l-2.04-3.11 2.02-3.13c.27-.42.09-.98-.38-1.15l-3.49-1.32-.19-3.75c-.02-.5-.5-.85-.98-.71l-3.59.98-2.36-2.9c-.31-.38-.9-.38-1.21 0l-2.34 2.9-3.62-.97c-.48-.13-.96.22-.98.72l-.17 3.73-3.49 1.33c-.47.18-.65.74-.37 1.16zm9.56-6c3.31 0 6 2.68 6 6s-2.68 6-6 6-6-2.68-6-6 2.68-6 6-6z"/><path d="m18.84 12.78c.23.33.42.68.62 1.03.31-.6.59-1.19.82-1.76.21-.51.79-.75 1.3-.55.51.21.76.79.55 1.3-.45 1.11-1.05 2.26-1.7 3.39.47 1.63.63 3.44.48 5.41 4.41-1.51 9.22-5.7 6.09-17.23 0 0-7.94-.12-11.46 5.26 1.22.79 2.36 1.81 3.29 3.14z"/><path d="m58.78 40.98c-.27-.48-.88-.65-1.36-.38l-2.03 1.15.36-1.31c.15-.53-.17-1.08-.7-1.23s-1.08.17-1.23.7l-.89 3.23-1.67.95-2.66-1.53v-1.93l2.37-2.36c.39-.39.39-1.02 0-1.41s-1.02-.39-1.41 0l-.96.96v-2.33c0-.55-.45-1-1-1s-1 .45-1 1v2.33l-.96-.96c-.39-.39-1.02-.39-1.41 0s-.39 1.02 0 1.41l2.37 2.37v1.93l-2.65 1.53-1.68-.95-.88-3.22c-.15-.53-.7-.85-1.23-.7s-.85.7-.7 1.23l.35 1.29-2.01-1.14c-.48-.27-1.09-.11-1.36.37s-.11 1.09.37 1.36l2.03 1.16-1.32.37c-.53.15-.84.7-.7 1.23.12.44.53.73.96.73.09 0 .18-.01.27-.04l3.24-.9 1.68.96v2.96s-1.69.96-1.69.96l-3.23-.89c-.53-.14-1.08.16-1.23.7-.15.53.17 1.08.7 1.23l1.31.36-2.03 1.15c-.48.27-.65.88-.38 1.36.18.32.52.51.87.51.17 0 .34-.04.49-.13l2.03-1.15-.36 1.31c-.15.53.17 1.08.7 1.23.09.02.18.04.27.04.44 0 .84-.29.96-.74l.89-3.23 1.67-.95 2.66 1.53v1.93l-2.37 2.37c-.39.39-.39 1.02 0 1.41.2.2.45.29.71.29s.51-.1.71-.29l.96-.96v2.33c0 .55.45 1 1 1s1-.45 1-1v-2.33l.96.96c.39.39 1.03.39 1.41 0 .39-.39.39-1.02 0-1.41l-2.37-2.36v-1.93l2.65-1.53 1.67.95.88 3.22c.12.44.52.74.96.74.09 0 .18-.01.27-.04.53-.15.85-.7.7-1.23l-.35-1.29 2.02 1.15c.16.09.33.13.49.13.35 0 .69-.18.87-.5.27-.48.11-1.09-.37-1.36l-2.03-1.16 1.32-.36c.53-.15.84-.7.7-1.23-.15-.53-.7-.84-1.23-.7l-3.24.89-1.68-.96v-2.96s1.69-.96 1.69-.96l3.23.89c.09.02.18.04.27.04.44 0 .84-.29.96-.73.15-.53-.17-1.08-.7-1.23l-1.31-.36 2.03-1.15c.48-.27.65-.88.38-1.36zm-8.55 7.86-2.62 1.51-2.62-1.52v-3.03s2.62-1.51 2.62-1.51l2.62 1.52z"/></svg>