<svg id="regular" enable-background="new 0 0 24 24" viewBox="0 0 24 24" xmlns="http://www.w3.org/2000/svg"><g><path d="m12 24c-.064 0-.129-.009-.192-.025-.098-.026-9.808-2.698-9.808-11.8v-8.001c0-.314.195-.595.49-.703l9.25-3.424c.168-.062.353-.062.521 0l9.25 3.424c.294.108.489.389.489.703v8.001c0 9.103-9.71 11.774-9.808 11.8-.063.016-.128.025-.192.025zm-8.5-19.304v7.479c0 7.298 7.232 9.895 8.503 10.294 1.32-.402 8.497-2.93 8.497-10.294v-7.479l-8.5-3.146z"/></g><g><path d="m12 17.5c-.206 0-.403-.085-.545-.234l-4.477-4.736c-1.298-1.372-1.298-3.605 0-4.978 1.281-1.355 3.538-1.356 4.821 0l.201.213.201-.213c1.282-1.356 3.539-1.355 4.821 0 1.298 1.372 1.298 3.605 0 4.978l-4.477 4.736c-.142.149-.339.234-.545.234zm-2.611-9.5c-.497 0-.966.207-1.321.583-.76.804-.76 2.111 0 2.915l3.932 4.16 3.932-4.16c.76-.804.76-2.111 0-2.915-.71-.752-1.93-.752-2.641 0l-.746.789c-.283.299-.807.299-1.09 0l-.746-.789c-.355-.376-.824-.583-1.32-.583z"/></g></svg>