<svg id="Layer_1" enable-background="new 0 0 66 66" height="512" viewBox="0 0 66 66" width="512" xmlns="http://www.w3.org/2000/svg"><g><path d="m19 42.09c3.87 0 7-3.13 7-7s-3.13-7-7-7-7 3.13-7 7 3.13 7 7 7z"/><circle cx="47" cy="35.09" r="7"/><path d="m61 32.09c-1.66 0-3 1.34-3 3 0 6.07-4.93 11-11 11s-11-4.93-11-11c0-1.66-1.34-3-3-3s-3 1.34-3 3c0 5.63 2.77 10.62 7 13.72v15.28h20v-15.28c4.23-3.09 7-8.08 7-13.72 0-1.66-1.34-3-3-3z"/><path d="m25.47 25.09 7.53-3.96 7.53 3.96-1.44-8.39 6.1-5.94-8.42-1.22-3.77-7.63-3.77 7.63-8.42 1.22 6.1 5.94z"/><path d="m43.17 17.54c-.31.46-.18 1.08.28 1.39l3 2c.17.11.36.17.55.17.32 0 .64-.16.83-.45.31-.46.18-1.08-.28-1.39l-3-2c-.46-.31-1.08-.18-1.38.28z"/><path d="m19 21.09c.19 0 .38-.05.55-.17l3-2c.46-.31.58-.93.28-1.39s-.93-.58-1.39-.28l-3 2c-.46.31-.58.93-.28 1.39.2.29.52.45.84.45z"/><path d="m25.45 5.92c.17.11.36.17.55.17.32 0 .64-.16.83-.45.31-.46.18-1.08-.28-1.39l-3-2c-.46-.31-1.08-.18-1.39.28-.3.47-.17 1.09.29 1.39z"/><path d="m40 6.09c.19 0 .38-.05.55-.17l3-2c.46-.31.58-.93.28-1.39s-.93-.58-1.39-.28l-3 2c-.46.31-.58.93-.28 1.39.2.29.52.45.84.45z"/><path d="m14 12.09h2.82c.55 0 1-.45 1-1s-.45-1-1-1h-2.82c-.55 0-1 .45-1 1s.45 1 1 1z"/><path d="m49 12.09h2.82c.55 0 1-.45 1-1s-.45-1-1-1h-2.82c-.55 0-1 .45-1 1s.45 1 1 1z"/><path d="m19 46.09c-6.07 0-11-4.93-11-11 0-1.66-1.34-3-3-3s-3 1.34-3 3c0 5.63 2.77 10.62 7 13.72v15.28h20v-15.28c1-.73 1.9-1.57 2.71-2.49-1.35-1.84-2.37-3.9-2.99-6.09-1.85 3.48-5.51 5.86-9.72 5.86z"/></g></svg>