<svg
  id="Layer_1"
  enable-background="new 0 0 100 100"
  viewBox="0 0 100 100"
  xmlns="http://www.w3.org/2000/svg"
  xmlns:xlink="http://www.w3.org/1999/xlink"
>
  <linearGradient
    id="SVGID_1_"
    gradientUnits="userSpaceOnUse"
    x1="-.626"
    x2="91.391"
    y1="-4.326"
    y2="96.514"
  >
    <stop offset="0" stop-color="#97e0ff" />
    <stop offset="1" stop-color="#1075ff" />
  </linearGradient>
  <path
    clip-rule="evenodd"
    d="m95.388916 15.9931984c0-.0859947-.0573273-.1861458-.1289902-.2289686-.0569763-.0429974-.1143112-.0716619-.1859741-.0716619-.0286636 0-.0573273.0143328-.0859909.0143328-3.6225967.8877325-11.5407104 3.0354929-23.5536957 6.400281-.1289902.0143337-.2293167.1289921-.2433014.2576332-.0286636.1289921.0286636.2721405.1429749.3294716l4.281189 2.8350143c1.7324677 1.1453667 2.2337494 3.4794483 1.1312027 5.2405834l-.014328-.0143337c-7.8464584 12.1419754-17.9839935 22.6516304-29.8110046 30.9563713-13.6024819 9.407112-28.4791432 16.8097838-44.2007187 21.9500426-.1576562.0573273-.2434757.2148132-.2148111.3866196.0428224.157486.1861463.2719727.3436277.257637 33.7627258-2.4053955 62.8578072-18.0553055 86.4831619-46.5061302 1.0882187-1.3315125 2.6630325-.3722916 3.7082443.2578087.9309082.5584373 2.2194214 1.4175072 3.937561 2.6345367.1003265.0859947.2436523.1003265.3579559.0286636.1146622-.0573273.1863251-.1861458.1576614-.3149643z"
    fill-rule="evenodd"
  />
</svg>
