<svg id="Layer_1" height="512" viewBox="0 0 32 32" width="512" xmlns="http://www.w3.org/2000/svg" data-name="Layer 1"><g fill="rgb(0,0,0)"><path d="m16 2a1 1 0 0 0 -1 1v26a1 1 0 0 0 2 0v-26a1 1 0 0 0 -1-1z"/><path d="m20 9a1 1 0 0 0 -1 1v13a1 1 0 0 0 2 0v-13a1 1 0 0 0 -1-1z"/><path d="m24 6a1 1 0 0 0 -1 1v19a1 1 0 0 0 2 0v-19a1 1 0 0 0 -1-1z"/><path d="m28 12a1 1 0 0 0 -1 1v7a1 1 0 0 0 2 0v-7a1 1 0 0 0 -1-1z"/><path d="m12 9a1 1 0 0 0 -1 1v13a1 1 0 0 0 2 0v-13a1 1 0 0 0 -1-1z"/><path d="m8 6a1 1 0 0 0 -1 1v19a1 1 0 0 0 2 0v-19a1 1 0 0 0 -1-1z"/><path d="m4 12a1 1 0 0 0 -1 1v7a1 1 0 0 0 2 0v-7a1 1 0 0 0 -1-1z"/></g></svg>