<svg enable-background="new 0 0 72 72" height="512" viewBox="0 0 72 72" width="512" xmlns="http://www.w3.org/2000/svg"><g id="Layer_16"><path d="m44 22h4v7h-4z"/><path d="m57 23v20c0 .55-.45 1-1 1h-20c-.55 0-1-.45-1-1v-20c0-.55.45-1 1-1h6v8c0 .55.45 1 1 1h6c.55 0 1-.45 1-1v-8h6c.55 0 1 .45 1 1z"/><path d="m32 45h4v7h-4z"/><path d="m45 46v20c0 .55-.45 1-1 1h-20c-.55 0-1-.45-1-1v-20c0-.55.45-1 1-1h6v8c0 .55.45 1 1 1h6c.55 0 1-.45 1-1v-8h6c.55 0 1 .45 1 1z"/><path d="m56 45h4v7h-4z"/><path d="m69 46v20c0 .55-.45 1-1 1h-20c-.55 0-1-.45-1-1v-20c0-.55.45-1 1-1h6v8c0 .55.45 1 1 1h6c.55 0 1-.45 1-1v-8h6c.55 0 1 .45 1 1z"/><path d="m68.51 23.14-32-19c-.31-.19-.71-.19-1.02 0l-32 19c-.48.28-.63.9-.35 1.37s.9.63 1.37.35l2.49-1.48v42.62c0 .55.45 1 1 1h9c.55 0 1-.45 1-1v-32h15v-11c0-1.65 1.35-3 3-3h20c1.65 0 3 1.35 3 3v21h6v-20.62l2.49 1.48c.16.1.34.14.51.14.34 0 .67-.17.86-.49.28-.47.13-1.09-.35-1.37zm-27.51-7.14h-10c-.55 0-1-.45-1-1s.45-1 1-1h10c.55 0 1 .45 1 1s-.45 1-1 1z"/></g></svg>